<?xml version="1.0" encoding="utf-8"?>
<!-- Generator: Adobe Illustrator 16.0.0, SVG Export Plug-In . SVG Version: 6.00 Build 0)  -->
<!DOCTYPE svg PUBLIC "-//W3C//DTD SVG 1.1//EN" "http://www.w3.org/Graphics/SVG/1.1/DTD/svg11.dtd">
<svg version="1.1" id="Layer_1" xmlns="http://www.w3.org/2000/svg" xmlns:xlink="http://www.w3.org/1999/xlink" x="0px" y="0px"
	 width="293.382px" height="293.383px" viewBox="0 0 293.382 293.383" enable-background="new 0 0 293.382 293.383"
	 xml:space="preserve">
<rect fill="#FFFFFF" width="293.382" height="293.383"/>
<g opacity="0.8">
	<path fill="#ED7A6D" d="M85.283,54.071c4.323-7.759,10.399-13.936,18.101-18.519c7.505-4.464,16.262-7.194,26.146-8.253
		c9.533-1.017,19.786-0.253,30.656,2.171c8.589,1.915,16.885,4.833,24.939,8.729c7.769,3.756,14.528,8.266,20.382,13.53
		c5.707,5.126,10.256,10.879,13.686,17.291c3.383,6.321,5.053,13.334,5.053,21.117c0,10.067-2.125,18.479-6.439,25.328
		c-4.399,6.983-12.152,11.984-23.572,15.022v0.568c6.883,0.901,12.748,2.913,17.646,5.991c4.807,3.026,8.736,6.647,11.826,10.885
		c3.062,4.18,5.318,8.895,6.815,14.152c1.475,5.234,2.213,10.69,2.213,16.406c0,9.02-1.486,17.396-4.467,25.199
		c-3.022,7.93-7.334,15.103-12.979,21.585c-5.786,6.63-12.94,12.397-21.515,17.286c-8.937,5.076-19.129,8.936-30.79,11.535
		c-5.426,1.211-10.599,1.957-15.532,2.225v-22.719c1.987,0.064,4.085-0.059,6.253-0.334c2.177-0.287,4.22-0.602,6.116-0.938
		c15.819-2.824,27.676-8.769,36.1-17.733c8.119-8.642,12.082-18.897,12.082-30.998c0-8.974-1.261-16.104-3.811-21.416
		c-2.58-5.365-6.293-9.508-11.196-12.418c-5.008-2.983-11.209-4.953-18.699-5.905c-7.707-0.961-16.619-1.462-26.845-1.453v-21.16
		c7.355,0.715,14.201,0.672,20.57-0.076c6.235-0.718,11.591-2.281,16.128-4.668c4.473-2.339,7.963-5.643,10.543-9.909
		c2.553-4.213,3.811-9.486,3.811-15.844c0-4.485-0.86-8.763-2.583-12.839c-1.746-4.101-4.174-7.823-7.298-11.172
		c-3.188-3.383-6.943-6.324-11.315-8.827c-4.464-2.541-9.44-4.312-15.022-5.307c-6.165-1.096-11.99-1.457-17.447-1.072
		c-5.581,0.412-10.434,1.912-14.507,4.55c-4.149,2.687-7.465,6.785-9.917,12.323c-2.491,5.594-3.74,13.014-3.74,22.253v170.138
		l-38.012,8.219V81.793C78.66,71.228,80.879,61.961,85.283,54.071z"/>
</g>
<polygon opacity="0.5" fill="#4CBBAC" points="146.817,71.14 231.628,139.319 146.463,214.918 "/>
</svg>
